<?xml version="1.0" encoding="UTF-8" standalone="no"?>
<!-- Created with Inkscape (http://www.inkscape.org/) -->

<svg
   width="500"
   height="200"
   viewBox="0 0 132.29167 52.916665"
   version="1.1"
   id="svg5"
   inkscape:version="1.2.2 (732a01da63, 2022-12-09)"
   sodipodi:docname="moon-kids.svg"
   xmlns:inkscape="http://www.inkscape.org/namespaces/inkscape"
   xmlns:sodipodi="http://sodipodi.sourceforge.net/DTD/sodipodi-0.dtd"
   xmlns:xlink="http://www.w3.org/1999/xlink"
   xmlns="http://www.w3.org/2000/svg"
   xmlns:svg="http://www.w3.org/2000/svg">
  <sodipodi:namedview
     id="namedview7"
     pagecolor="#ffffff"
     bordercolor="#000000"
     borderopacity="0.25"
     inkscape:showpageshadow="2"
     inkscape:pageopacity="0.0"
     inkscape:pagecheckerboard="0"
     inkscape:deskcolor="#d1d1d1"
     inkscape:document-units="mm"
     showgrid="false"
     inkscape:zoom="2.9647587"
     inkscape:cx="275.06454"
     inkscape:cy="114.00591"
     inkscape:window-width="3360"
     inkscape:window-height="1850"
     inkscape:window-x="3348"
     inkscape:window-y="-12"
     inkscape:window-maximized="1"
     inkscape:current-layer="layer1" />
  <defs
     id="defs2">
    <rect
       x="-81.288234"
       y="-21.249621"
       width="604.77097"
       height="322.11728"
       id="rect1392" />
    <rect
       x="-90.395215"
       y="-96.803831"
       width="486.38022"
       height="106.24811"
       id="rect1026" />
    <rect
       x="-121.7637"
       y="-91.407102"
       width="157.17974"
       height="37.777105"
       id="rect1020" />
    <rect
       x="126.40711"
       y="118.77499"
       width="350.60086"
       height="86.099937"
       id="rect315" />
    <linearGradient
       inkscape:collect="always"
       id="linearGradient7019">
      <stop
         style="stop-color:#012754;stop-opacity:1;"
         offset="0"
         id="stop7015" />
      <stop
         style="stop-color:#012754;stop-opacity:0;"
         offset="1"
         id="stop7017" />
    </linearGradient>
    <linearGradient
       inkscape:collect="always"
       id="linearGradient1024">
      <stop
         style="stop-color:#000000;stop-opacity:0;"
         offset="0"
         id="stop1020" />
      <stop
         style="stop-color:#000000;stop-opacity:0;"
         offset="1"
         id="stop1022" />
    </linearGradient>
    <linearGradient
       inkscape:collect="always"
       id="linearGradient956">
      <stop
         style="stop-color:#000000;stop-opacity:1;"
         offset="0"
         id="stop952" />
      <stop
         style="stop-color:#000000;stop-opacity:0;"
         offset="1"
         id="stop954" />
    </linearGradient>
    <linearGradient
       inkscape:collect="always"
       id="linearGradient925">
      <stop
         style="stop-color:#e5ccb3;stop-opacity:1;"
         offset="0"
         id="stop921" />
      <stop
         style="stop-color:#e5ccb3;stop-opacity:0;"
         offset="1"
         id="stop923" />
    </linearGradient>
    <linearGradient
       inkscape:collect="always"
       xlink:href="#linearGradient7019"
       id="linearGradient927"
       x1="5.9904208"
       y1="25.013531"
       x2="45.677914"
       y2="25.013531"
       gradientUnits="userSpaceOnUse"
       gradientTransform="matrix(1,0,0,1.0000202,4.4809192,-0.16387657)" />
    <linearGradient
       inkscape:collect="always"
       xlink:href="#linearGradient956"
       id="linearGradient960"
       x1="7.5279193"
       y1="26.149935"
       x2="47.215412"
       y2="26.149935"
       gradientUnits="userSpaceOnUse"
       gradientTransform="translate(2.9434206,-1.2997746)" />
    <linearGradient
       inkscape:collect="always"
       xlink:href="#linearGradient925"
       id="linearGradient1016"
       gradientUnits="userSpaceOnUse"
       gradientTransform="matrix(1,0,0,1.0000202,-3.3551985,5.3573706)"
       x1="5.9904208"
       y1="25.013531"
       x2="45.677914"
       y2="25.013531" />
    <linearGradient
       inkscape:collect="always"
       xlink:href="#linearGradient1024"
       id="linearGradient1018"
       gradientUnits="userSpaceOnUse"
       gradientTransform="translate(-4.8926973,4.2214723)"
       x1="7.5279193"
       y1="26.149935"
       x2="47.215412"
       y2="26.149935" />
    <filter
       inkscape:label="Blur Double"
       inkscape:menu="Blurs"
       inkscape:menu-tooltip="Overlays two copies with different blur amounts and modifiable blend and composite"
       style="color-interpolation-filters:sRGB"
       id="filter1043"
       x="-0.61640412"
       y="-0.61640876"
       width="2.2328082"
       height="2.2328175">
      <feGaussianBlur
         stdDeviation="5"
         result="fbSourceGraphic"
         id="feGaussianBlur1035" />
      <feGaussianBlur
         stdDeviation="0.01"
         in="SourceGraphic"
         result="result1"
         id="feGaussianBlur1037" />
      <feComposite
         in2="result1"
         operator="arithmetic"
         in="fbSourceGraphic"
         k2="0.5"
         k3="0.5"
         result="result2"
         id="feComposite1039"
         k1="0"
         k4="0" />
      <feBlend
         in2="fbSourceGraphic"
         mode="normal"
         result="fbSourceGraphic"
         id="feBlend1041" />
      <feColorMatrix
         result="fbSourceGraphicAlpha"
         in="fbSourceGraphic"
         values="0 0 0 -1 0 0 0 0 -1 0 0 0 0 -1 0 0 0 0 1 0"
         id="feColorMatrix1045" />
      <feGaussianBlur
         id="feGaussianBlur1047"
         stdDeviation="5"
         result="fbSourceGraphic"
         in="fbSourceGraphic" />
      <feGaussianBlur
         id="feGaussianBlur1049"
         stdDeviation="0.01"
         in="fbSourceGraphic"
         result="result1" />
      <feComposite
         in2="result1"
         id="feComposite1051"
         operator="arithmetic"
         in="fbSourceGraphic"
         k2="0.5"
         k3="0.5"
         result="result2"
         k1="0"
         k4="0" />
      <feBlend
         in2="fbSourceGraphic"
         id="feBlend1053"
         mode="normal"
         result="result3" />
    </filter>
    <filter
       style="color-interpolation-filters:sRGB"
       inkscape:label="Drop Shadow"
       id="filter3564"
       x="-0.040361165"
       y="-0.19738466"
       width="1.0807223"
       height="1.3947693">
      <feFlood
         flood-opacity="1"
         flood-color="rgb(255,255,255)"
         result="flood"
         id="feFlood3554" />
      <feComposite
         in="flood"
         in2="SourceGraphic"
         operator="in"
         result="composite1"
         id="feComposite3556" />
      <feGaussianBlur
         in="composite1"
         stdDeviation="5"
         result="blur"
         id="feGaussianBlur3558" />
      <feOffset
         dx="0"
         dy="0"
         result="offset"
         id="feOffset3560" />
      <feComposite
         in="SourceGraphic"
         in2="offset"
         operator="over"
         result="composite2"
         id="feComposite3562" />
    </filter>
    <filter
       style="color-interpolation-filters:sRGB"
       inkscape:label="Drop Shadow"
       id="filter3564-4"
       x="-0.043188049"
       y="-0.19119829"
       width="1.0863761"
       height="1.3823966">
      <feFlood
         flood-opacity="1"
         flood-color="rgb(255,255,255)"
         result="flood"
         id="feFlood3554-8" />
      <feComposite
         in="flood"
         in2="SourceGraphic"
         operator="in"
         result="composite1"
         id="feComposite3556-0" />
      <feGaussianBlur
         in="composite1"
         stdDeviation="5"
         result="blur"
         id="feGaussianBlur3558-5" />
      <feOffset
         dx="0"
         dy="0"
         result="offset"
         id="feOffset3560-8" />
      <feComposite
         in="SourceGraphic"
         in2="offset"
         operator="over"
         result="composite2"
         id="feComposite3562-2" />
    </filter>
    <rect
       x="30.356602"
       y="-92.081696"
       width="462.76953"
       height="84.323898"
       id="rect403" />
    <filter
       style="color-interpolation-filters:sRGB;"
       inkscape:label="Drop Shadow"
       id="filter2059"
       x="-0.043448878"
       y="-0.19344674"
       width="1.0868978"
       height="1.3868935">
      <feFlood
         flood-opacity="1"
         flood-color="rgb(255,255,255)"
         result="flood"
         id="feFlood2049" />
      <feComposite
         in="flood"
         in2="SourceGraphic"
         operator="in"
         result="composite1"
         id="feComposite2051" />
      <feGaussianBlur
         in="composite1"
         stdDeviation="5"
         result="blur"
         id="feGaussianBlur2053" />
      <feOffset
         dx="0"
         dy="0"
         result="offset"
         id="feOffset2055" />
      <feComposite
         in="SourceGraphic"
         in2="offset"
         operator="over"
         result="composite2"
         id="feComposite2057" />
    </filter>
    <rect
       x="-90.395218"
       y="-96.803833"
       width="486.38022"
       height="106.24811"
       id="rect1026-9" />
    <filter
       style="color-interpolation-filters:sRGB"
       inkscape:label="Drop Shadow"
       id="filter2059-3"
       x="-0.044561524"
       y="-0.19643818"
       width="1.089123"
       height="1.3928764">
      <feFlood
         flood-opacity="1"
         flood-color="rgb(255,255,255)"
         result="flood"
         id="feFlood2049-0" />
      <feComposite
         in="flood"
         in2="SourceGraphic"
         operator="in"
         result="composite1"
         id="feComposite2051-5" />
      <feGaussianBlur
         in="composite1"
         stdDeviation="5"
         result="blur"
         id="feGaussianBlur2053-8" />
      <feOffset
         dx="0"
         dy="0"
         result="offset"
         id="feOffset2055-9" />
      <feComposite
         in="SourceGraphic"
         in2="offset"
         operator="over"
         result="composite2"
         id="feComposite2057-6" />
    </filter>
  </defs>
  <g
     inkscape:label="Слой 1"
     inkscape:groupmode="layer"
     id="layer1">
    <path
       id="ellipse1014"
       style="fill:url(#linearGradient1016);stroke:url(#linearGradient1018);stroke-width:0.372004;filter:url(#filter1043)"
       transform="matrix(1,0,0.00636002,0.99997977,7.1277442,-1.4736213)"
       d="M 42.136869,30.371973 A 19.65756,19.657412 0 0 1 22.479309,50.029385 19.65756,19.657412 0 0 1 2.8217487,30.371973 19.65756,19.657412 0 0 1 22.479309,10.714561 19.65756,19.657412 0 0 1 42.136869,30.371973 Z" />
    <path
       id="path234"
       style="fill:url(#linearGradient927);stroke:url(#linearGradient960);stroke-width:0.372004"
       transform="matrix(1,0,0.00636002,0.99997977,0,0)"
       d="M 49.97299,24.850727 A 19.65756,19.657412 0 0 1 30.31543,44.508139 19.65756,19.657412 0 0 1 10.657869,24.850727 19.65756,19.657412 0 0 1 30.31543,5.1933155 19.65756,19.657412 0 0 1 49.97299,24.850727 Z" />
    <g
       aria-label="Лучшие из детей
в кино"
       transform="matrix(0.26458333,0,0,0.26458333,42.926497,37.823107)"
       id="text1024"
       style="font-size:33.3333px;font-family:Play;-inkscape-font-specification:Play;white-space:pre;shape-inside:url(#rect1026);display:inline;fill:#ffffff;stroke:#ffffff;stroke-width:1.40598;stroke-opacity:0;filter:url(#filter2059)">
      <path
         d="m -85.961202,-87.303771 h 18.599982 v 21.633313 h -5.199995 v -17.933316 h -8.199992 v 13.233321 q 0,1.299998 -0.366666,2.233331 -0.333333,0.933332 -0.866666,1.466665 -0.5,0.5 -1.399999,0.799999 -0.866666,0.266667 -1.666665,0.333333 -0.799999,0.1 -1.966665,0.1 -1.866665,0 -2.699997,-0.166666 v -3.399997 q 0.599999,0.166666 1.733331,0.166666 2.033332,0 2.033332,-2.199997 z"
         id="path1445" />
      <path
         d="m -47.494582,-81.803776 -8.833325,23.066645 h -4.933329 l 2.933331,-7.06666 -6.433327,-15.999985 h 5.299995 l 3.633329,11.399989 3.299997,-11.399989 z"
         id="path1447" />
      <path
         d="m -45.427907,-81.770443 h 5.033329 v 5.399995 q 0,1.833332 0.399999,2.266665 0.4,0.399999 2.199998,0.399999 2.133331,0 2.666664,-0.366666 0.566666,-0.4 0.566666,-1.966665 v -5.733328 h 5.033329 v 16.099985 h -5.033329 v -7.099993 q -0.533333,2.433331 -4.599995,2.433331 -2.599998,0 -3.999996,-0.6 -1.399999,-0.633332 -1.833332,-1.633331 -0.433333,-1.033333 -0.433333,-2.866664 z"
         id="path1449" />
      <path
         d="m -15.961289,-81.803776 h 4.866662 v 13.133321 h 4.4333292 v -13.133321 h 4.866662 v 16.133318 H -25.26128 v -16.133318 h 4.866662 v 13.133321 h 4.433329 z"
         id="path1451" />
      <path
         d="M 8.0387149,-65.670458 H 2.4720535 v -16.133318 h 4.4999957 v 11.366656 l 7.0999928,-11.366656 h 5.566662 v 16.133318 h -4.499996 v -11.666655 z"
         id="path1453" />
      <path
         d="M 38.805336,-72.437118 H 28.338679 v 1.466665 q 0,1.366665 0.966666,1.999998 0.966665,0.6 3.633329,0.6 2.399998,0 5.399995,-0.7 v 3.099997 q -3.066663,0.633333 -6.333327,0.633333 -8.566658,0 -8.566658,-5.233328 v -5.799995 q 0,-3.099997 1.999998,-4.433329 1.999998,-1.333332 5.966661,-1.333332 3.733329,0 5.566661,1.266666 1.833332,1.266665 1.833332,4.499995 z m -4.633329,-2.766664 v -2.333331 q 0,-0.766666 -0.633333,-1.166666 -0.6,-0.433333 -2.199998,-0.433333 -1.766665,0 -2.399998,0.433333 -0.599999,0.4 -0.599999,1.166666 v 2.333331 z"
         id="path1455" />
      <path
         d="m 55.771968,-65.670458 h -5.566661 v -16.133318 h 4.499996 v 11.366656 l 7.099993,-11.366656 h 5.566661 v 16.133318 h -4.499995 v -11.666655 z"
         id="path1457" />
      <path
         d="m 85.838597,-71.437119 v 1.533332 q 0,2.699997 -1.999998,3.63333 -1.966665,0.933332 -6.233327,0.933332 -3.366664,0 -6.933327,-0.499999 v -3.399997 q 4.266663,0.866666 6.96666,0.866666 1.966665,0 2.633331,-0.333333 0.699999,-0.333333 0.699999,-1.433332 v -0.833333 q 0,-0.933332 -0.899999,-1.299999 -0.866666,-0.366666 -2.699997,-0.366666 h -3.599997 v -3.03333 h 3.599997 q 2.83333,0 2.83333,-1.733332 v -0.133333 q 0,-0.966666 -0.699999,-1.266666 -0.666666,-0.333333 -2.766664,-0.333333 -2.533331,0 -5.733328,0.4 v -3.099997 q 2.533331,-0.3 6.266661,-0.3 4.399996,0 6.033327,0.799999 1.666665,0.8 1.666665,2.933331 v 1.233332 q 0,1.033332 -0.633332,1.699998 -0.6,0.633333 -1.433332,0.866666 2.93333,1.066666 2.93333,3.166664 z"
         id="path1459" />
      <path
         d="m 99.405276,-81.803776 h 12.666654 v 13.133321 h 1.46667 v 7.466659 h -4.43333 v -4.466662 h -9.333327 v 4.466662 h -4.433329 v -7.466659 h 1.199998 q 2.866664,-4.366663 2.866664,-10.79999 z m 7.866664,2.999997 h -3.3 v 0.866666 q 0,2.066665 -0.6,4.766662 -0.6,2.666664 -1.63333,4.499996 h 5.53333 z"
         id="path1461" />
      <path
         d="m 131.7719,-72.437118 h -10.46665 v 1.466665 q 0,1.366665 0.96666,1.999998 0.96667,0.6 3.63333,0.6 2.4,0 5.4,-0.7 v 3.099997 q -3.06667,0.633333 -6.33333,0.633333 -8.56666,0 -8.56666,-5.233328 v -5.799995 q 0,-3.099997 2,-4.433329 2,-1.333332 5.96666,-1.333332 3.73333,0 5.56666,1.266666 1.83333,1.266665 1.83333,4.499995 z m -4.63333,-2.766664 v -2.333331 q 0,-0.766666 -0.63333,-1.166666 -0.6,-0.433333 -2.2,-0.433333 -1.76666,0 -2.39999,0.433333 -0.6,0.4 -0.6,1.166666 v 2.333331 z"
         id="path1463" />
      <path
         d="m 148.53853,-78.803779 h -4.96666 v 13.133321 h -4.86666 v -13.133321 h -5 v -2.999997 h 14.83332 z"
         id="path1465" />
      <path
         d="m 165.90514,-72.437118 h -10.46665 v 1.466665 q 0,1.366665 0.96666,1.999998 0.96667,0.6 3.63333,0.6 2.4,0 5.4,-0.7 v 3.099997 q -3.06667,0.633333 -6.33333,0.633333 -8.56666,0 -8.56666,-5.233328 v -5.799995 q 0,-3.099997 2,-4.433329 2,-1.333332 5.96666,-1.333332 3.73333,0 5.56666,1.266666 1.83333,1.266665 1.83333,4.499995 z m -4.63333,-2.766664 v -2.333331 q 0,-0.766666 -0.63333,-1.166666 -0.6,-0.433333 -2.2,-0.433333 -1.76666,0 -2.39999,0.433333 -0.6,0.4 -0.6,1.166666 v 2.333331 z"
         id="path1467" />
      <path
         d="m 175.20515,-65.670458 h -5.56666 v -16.133318 h 4.49999 v 11.366656 l 7.1,-11.366656 h 5.56666 v 16.133318 h -4.5 v -11.666655 z m 7.59999,-22.666645 q -0.13333,1.899998 -1.36666,3.066664 -1.2,1.166665 -3.23333,1.166665 -2.06667,0 -3.3,-1.166665 -1.2,-1.166666 -1.3,-3.066664 h 2.7 q 0.2,0.966666 0.6,1.399999 0.4,0.433333 1.3,0.433333 1.66666,0 1.86666,-1.833332 z"
         id="path1469" />
      <path
         d="m -72.427882,-29.23716 v 0.966665 q 0,2.166665 -1.599998,3.233331 -1.599999,1.033332 -5.399995,1.033332 H -88.2612 V -40.13715 h 8.599992 q 2.133331,0 3.43333,0.266667 1.333332,0.233333 1.899998,0.833332 0.6,0.599999 0.766666,1.199999 0.166667,0.599999 0.166667,1.633332 v 0.566666 q 0,1.333332 -0.733333,1.933331 -0.733333,0.6 -2.233331,0.933333 v 0.133333 q 1.766665,0.3 2.83333,1.166665 1.099999,0.833333 1.099999,2.233332 z m -5.566661,-6.266661 v -0.2 q 0,-0.499999 -0.166667,-0.766666 -0.166666,-0.266666 -0.899999,-0.466666 -0.733332,-0.2 -2.166664,-0.2 h -2.166665 v 3.299997 h 2.266665 q 1.966664,0 2.53333,-0.366666 0.6,-0.366667 0.6,-1.299999 z m 0.766666,6.76666 v -0.599999 q 0,-0.933333 -0.766666,-1.233332 -0.766666,-0.3 -2.833331,-0.3 h -2.566664 v 3.866663 h 2.399998 q 2.099998,0 2.93333,-0.4 0.833333,-0.433333 0.833333,-1.333332 z"
         id="path1471" />
      <path
         d="M -61.227928,-24.003832 V -40.13715 h 4.866662 v 6.466661 q 0.733332,0 0.999999,-0.133334 0.3,-0.133333 0.633333,-0.699999 l 1.566665,-2.566664 q 1.366665,-2.266665 2.133331,-2.666664 0.766666,-0.4 3.766663,-0.4 h 1.599999 v 2.999997 h -0.533333 q -1.233332,0 -1.833332,0.266667 -0.566666,0.233333 -1.099999,0.999999 l -0.933332,1.333332 q -0.866666,1.266665 -1.633332,1.666665 1.599999,0.666666 3.199997,2.899997 l 4.233329,5.966661 h -5.599994 l -3.066664,-4.499996 q -0.999999,-1.466665 -1.599999,-1.833331 -0.599999,-0.366667 -1.833331,-0.366667 v 6.699994 z"
         id="path1473" />
      <path
         d="m -37.194592,-24.003832 h -5.566661 V -40.13715 h 4.499995 v 11.366656 l 7.099994,-11.366656 h 5.566661 v 16.133318 h -4.499996 v -11.666655 z"
         id="path1475" />
      <path
         d="m -5.0279651,-24.003832 h -4.866662 v -6.733327 h -6.5666599 v 6.733327 H -21.32795 V -40.13715 h 4.866663 v 6.233327 h 6.5666599 v -6.233327 h 4.866662 z"
         id="path1477" />
      <path
         d="m 15.172034,-34.303822 v 4.766662 q 0,1.566665 -0.499999,2.699997 -0.5,1.099999 -1.233332,1.733332 -0.733333,0.6 -1.933332,0.933333 -1.166665,0.333333 -2.1666645,0.399999 -0.9666658,0.1 -2.3666644,0.1 -1.3999987,0 -2.3999977,-0.1 -0.9666658,-0.06667 -2.1666646,-0.399999 -1.1666656,-0.333333 -1.89999822,-0.933333 -0.73333263,-0.633333 -1.23333215,-1.733332 -0.49999953,-1.133332 -0.49999953,-2.699997 v -4.766662 q 0,-1.666665 0.49999953,-2.833331 0.53333282,-1.199999 1.26666546,-1.833331 0.76666591,-0.633333 1.96666481,-0.966666 1.1999988,-0.366666 2.1333313,-0.433333 0.9666657,-0.1 2.3333311,-0.1 1.3666653,0 2.2999978,0.1 0.9666661,0.06667 2.1666641,0.433333 1.199999,0.333333 1.933332,0.966666 0.766666,0.633332 1.266665,1.833331 0.533333,1.166666 0.533333,2.833331 z m -4.866662,5.333328 v -6.099994 q 0,-1.299999 -0.6666658,-1.833332 -0.666666,-0.566666 -2.6666641,-0.566666 -1.9999981,0 -2.6666641,0.566666 -0.6666661,0.533333 -0.6666661,1.833332 v 6.099994 q 0,1.266666 0.6333328,1.766665 0.666666,0.5 2.6999974,0.5 2.0333314,0 2.6666641,-0.5 0.6666658,-0.499999 0.6666658,-1.766665 z"
         id="path1479" />
    </g>
    <text
       xml:space="preserve"
       transform="matrix(0.26458333,0,0,0.26458333,42.101497,-3.1201282)"
       id="text1024-6"
       style="font-size:33.3333px;font-family:Play;-inkscape-font-specification:Play;white-space:pre;shape-inside:url(#rect1026-9);display:inline;fill:#ffffff;fill-opacity:1;stroke:#ffffff;stroke-width:1.40598;stroke-opacity:0;filter:url(#filter2059-3)"><tspan
         x="-90.394531"
         y="-65.670458"
         id="tspan1617">Лучшие из детей
</tspan><tspan
         x="-90.394531"
         y="-24.003832"
         id="tspan1619">в кино</tspan></text>
    <text
       xml:space="preserve"
       transform="scale(0.26458333)"
       id="text1390"
       style="fill:#31ffff;stroke:#ffffff;stroke-width:1.40598425;-inkscape-font-specification:Play;font-family:Play;stroke-opacity:0;font-size:33.33333333px;white-space:pre;shape-inside:url(#rect1392)" />
  </g>
</svg>
